# xmcd
#
# Track frame offsets: 
#        150
#        20864
#        38820
#        57855
#        75908
#        96754
#        117343
#        132380
#        148420
#        172213
#
# Disc length: 2558 seconds
#
# Revision: 0
# Processed by: cddbd v1.5.2PL0 Copyright (c) Steve Scherf et al.
# Submitted via: ExactAudioCopy v1.3
#
DISCID=8e09fc0a
DTITLE=Billy Price - Strong
DYEAR=2013
DGENRE=Blues, Soul
TTITLE0=Drivin' Wheel
TTITLE1=Can't Leave It Alone
TTITLE2=Sweet Soul Music
TTITLE3=Gotta Be Strong
TTITLE4=The Lucky One
TTITLE5=Let's Go For A Ride
TTITLE6=Never Get Enough
TTITLE7=Diggin' A Hole
TTITLE8=Part Time Love
TTITLE9=I've Got Love On My Mind
EXTD=
EXTT0=
EXTT1=
EXTT2=
EXTT3=
EXTT4=
EXTT5=
EXTT6=
EXTT7=
EXTT8=
EXTT9=
PLAYORDER=
